<mxfile host="Electron" modified="2023-06-11T18:04:16.445Z" agent="Mozilla/5.0 (Windows NT 10.0; Win64; x64) AppleWebKit/537.36 (KHTML, like Gecko) draw.io/21.3.7 Chrome/112.0.5615.204 Electron/24.5.0 Safari/537.36" etag="9QAwQPTyGrhh9BmZ2Cn8" version="21.3.7" type="device">
  <diagram name="Page-1" id="fFvUmd22IfY0jttQV51N">
    <mxGraphModel dx="1418" dy="828" grid="1" gridSize="10" guides="1" tooltips="1" connect="1" arrows="1" fold="1" page="1" pageScale="1" pageWidth="850" pageHeight="1100" math="0" shadow="0">
      <root>
        <mxCell id="0" />
        <mxCell id="1" parent="0" />
        <mxCell id="10ImH-gmjK7zjDxez7WS-1" value="Customers" style="html=1;dashed=0;whiteSpace=wrap;" vertex="1" parent="1">
          <mxGeometry x="350" y="70" width="100" height="50" as="geometry" />
        </mxCell>
        <mxCell id="10ImH-gmjK7zjDxez7WS-2" value="PhoneNumbers" style="html=1;dashed=0;whiteSpace=wrap;" vertex="1" parent="1">
          <mxGeometry x="350" y="260" width="100" height="50" as="geometry" />
        </mxCell>
        <mxCell id="10ImH-gmjK7zjDxez7WS-3" value="Customer_ID" style="ellipse;whiteSpace=wrap;html=1;fontStyle=5" vertex="1" parent="1">
          <mxGeometry x="190" y="50" width="100" height="50" as="geometry" />
        </mxCell>
        <mxCell id="10ImH-gmjK7zjDxez7WS-4" value="Customer_name" style="ellipse;whiteSpace=wrap;html=1;" vertex="1" parent="1">
          <mxGeometry x="290" width="100" height="50" as="geometry" />
        </mxCell>
        <mxCell id="10ImH-gmjK7zjDxez7WS-5" value="Address" style="ellipse;whiteSpace=wrap;html=1;" vertex="1" parent="1">
          <mxGeometry x="410" width="100" height="50" as="geometry" />
        </mxCell>
        <mxCell id="10ImH-gmjK7zjDxez7WS-6" value="Date" style="ellipse;whiteSpace=wrap;html=1;" vertex="1" parent="1">
          <mxGeometry x="510" y="50" width="100" height="50" as="geometry" />
        </mxCell>
        <mxCell id="10ImH-gmjK7zjDxez7WS-7" value="Phone_ID" style="ellipse;whiteSpace=wrap;html=1;fontStyle=5" vertex="1" parent="1">
          <mxGeometry x="210" y="330" width="100" height="50" as="geometry" />
        </mxCell>
        <mxCell id="10ImH-gmjK7zjDxez7WS-8" value="Customer_ID*" style="ellipse;whiteSpace=wrap;html=1;fontStyle=0" vertex="1" parent="1">
          <mxGeometry x="350" y="350" width="100" height="50" as="geometry" />
        </mxCell>
        <mxCell id="10ImH-gmjK7zjDxez7WS-9" value="Numbers" style="ellipse;whiteSpace=wrap;html=1;fontStyle=0" vertex="1" parent="1">
          <mxGeometry x="480" y="320" width="100" height="50" as="geometry" />
        </mxCell>
        <mxCell id="10ImH-gmjK7zjDxez7WS-10" value="Have" style="rhombus;whiteSpace=wrap;html=1;" vertex="1" parent="1">
          <mxGeometry x="360" y="160" width="80" height="60" as="geometry" />
        </mxCell>
        <mxCell id="10ImH-gmjK7zjDxez7WS-11" value="" style="endArrow=none;html=1;rounded=0;entryX=0.5;entryY=1;entryDx=0;entryDy=0;" edge="1" parent="1" target="10ImH-gmjK7zjDxez7WS-1">
          <mxGeometry width="50" height="50" relative="1" as="geometry">
            <mxPoint x="400" y="160" as="sourcePoint" />
            <mxPoint x="450" y="300" as="targetPoint" />
          </mxGeometry>
        </mxCell>
        <mxCell id="10ImH-gmjK7zjDxez7WS-12" value="" style="endArrow=none;html=1;rounded=0;entryX=0.5;entryY=1;entryDx=0;entryDy=0;exitX=0.5;exitY=0;exitDx=0;exitDy=0;" edge="1" parent="1" source="10ImH-gmjK7zjDxez7WS-2" target="10ImH-gmjK7zjDxez7WS-10">
          <mxGeometry width="50" height="50" relative="1" as="geometry">
            <mxPoint x="410" y="170" as="sourcePoint" />
            <mxPoint x="410" y="130" as="targetPoint" />
          </mxGeometry>
        </mxCell>
        <mxCell id="10ImH-gmjK7zjDxez7WS-13" value="" style="endArrow=none;html=1;rounded=0;entryX=0;entryY=1;entryDx=0;entryDy=0;exitX=1;exitY=0.5;exitDx=0;exitDy=0;" edge="1" parent="1" source="10ImH-gmjK7zjDxez7WS-1" target="10ImH-gmjK7zjDxez7WS-6">
          <mxGeometry width="50" height="50" relative="1" as="geometry">
            <mxPoint x="550" y="260" as="sourcePoint" />
            <mxPoint x="600" y="210" as="targetPoint" />
          </mxGeometry>
        </mxCell>
        <mxCell id="10ImH-gmjK7zjDxez7WS-14" value="" style="endArrow=none;html=1;rounded=0;entryX=0.5;entryY=1;entryDx=0;entryDy=0;exitX=0.5;exitY=0;exitDx=0;exitDy=0;" edge="1" parent="1" source="10ImH-gmjK7zjDxez7WS-8" target="10ImH-gmjK7zjDxez7WS-2">
          <mxGeometry width="50" height="50" relative="1" as="geometry">
            <mxPoint x="400" y="350" as="sourcePoint" />
            <mxPoint x="450" y="300" as="targetPoint" />
          </mxGeometry>
        </mxCell>
        <mxCell id="10ImH-gmjK7zjDxez7WS-15" value="" style="endArrow=none;html=1;rounded=0;exitX=0;exitY=0;exitDx=0;exitDy=0;entryX=1;entryY=1;entryDx=0;entryDy=0;" edge="1" parent="1" source="10ImH-gmjK7zjDxez7WS-9" target="10ImH-gmjK7zjDxez7WS-2">
          <mxGeometry width="50" height="50" relative="1" as="geometry">
            <mxPoint x="400" y="350" as="sourcePoint" />
            <mxPoint x="450" y="300" as="targetPoint" />
          </mxGeometry>
        </mxCell>
        <mxCell id="10ImH-gmjK7zjDxez7WS-16" value="" style="endArrow=none;html=1;rounded=0;exitX=1;exitY=0;exitDx=0;exitDy=0;entryX=0;entryY=1;entryDx=0;entryDy=0;" edge="1" parent="1" source="10ImH-gmjK7zjDxez7WS-7" target="10ImH-gmjK7zjDxez7WS-2">
          <mxGeometry width="50" height="50" relative="1" as="geometry">
            <mxPoint x="400" y="350" as="sourcePoint" />
            <mxPoint x="450" y="300" as="targetPoint" />
          </mxGeometry>
        </mxCell>
        <mxCell id="10ImH-gmjK7zjDxez7WS-17" value="" style="endArrow=none;html=1;rounded=0;entryX=0.5;entryY=1;entryDx=0;entryDy=0;exitX=0.25;exitY=0;exitDx=0;exitDy=0;" edge="1" parent="1" source="10ImH-gmjK7zjDxez7WS-1" target="10ImH-gmjK7zjDxez7WS-4">
          <mxGeometry width="50" height="50" relative="1" as="geometry">
            <mxPoint x="400" y="350" as="sourcePoint" />
            <mxPoint x="450" y="300" as="targetPoint" />
          </mxGeometry>
        </mxCell>
        <mxCell id="10ImH-gmjK7zjDxez7WS-18" value="" style="endArrow=none;html=1;rounded=0;entryX=0.5;entryY=1;entryDx=0;entryDy=0;exitX=0.75;exitY=0;exitDx=0;exitDy=0;" edge="1" parent="1" source="10ImH-gmjK7zjDxez7WS-1" target="10ImH-gmjK7zjDxez7WS-5">
          <mxGeometry width="50" height="50" relative="1" as="geometry">
            <mxPoint x="400" y="350" as="sourcePoint" />
            <mxPoint x="450" y="300" as="targetPoint" />
          </mxGeometry>
        </mxCell>
        <mxCell id="10ImH-gmjK7zjDxez7WS-19" value="" style="endArrow=none;html=1;rounded=0;entryX=1;entryY=1;entryDx=0;entryDy=0;exitX=0;exitY=0.5;exitDx=0;exitDy=0;" edge="1" parent="1" source="10ImH-gmjK7zjDxez7WS-1" target="10ImH-gmjK7zjDxez7WS-3">
          <mxGeometry width="50" height="50" relative="1" as="geometry">
            <mxPoint x="400" y="350" as="sourcePoint" />
            <mxPoint x="450" y="300" as="targetPoint" />
          </mxGeometry>
        </mxCell>
        <mxCell id="10ImH-gmjK7zjDxez7WS-20" value="&lt;b&gt;&lt;font style=&quot;font-size: 14px;&quot;&gt;Customers&lt;/font&gt;&lt;/b&gt;" style="text;html=1;align=center;verticalAlign=middle;resizable=0;points=[];autosize=1;strokeColor=none;fillColor=none;" vertex="1" parent="1">
          <mxGeometry x="30" y="430" width="100" height="30" as="geometry" />
        </mxCell>
        <mxCell id="10ImH-gmjK7zjDxez7WS-21" value="" style="shape=table;startSize=0;container=1;collapsible=0;childLayout=tableLayout;" vertex="1" parent="1">
          <mxGeometry x="40" y="460" width="760" height="290" as="geometry" />
        </mxCell>
        <mxCell id="10ImH-gmjK7zjDxez7WS-22" value="" style="shape=tableRow;horizontal=0;startSize=0;swimlaneHead=0;swimlaneBody=0;strokeColor=inherit;top=0;left=0;bottom=0;right=0;collapsible=0;dropTarget=0;fillColor=none;points=[[0,0.5],[1,0.5]];portConstraint=eastwest;" vertex="1" parent="10ImH-gmjK7zjDxez7WS-21">
          <mxGeometry width="760" height="41" as="geometry" />
        </mxCell>
        <mxCell id="10ImH-gmjK7zjDxez7WS-23" value="Column Name" style="shape=partialRectangle;html=1;whiteSpace=wrap;connectable=0;strokeColor=inherit;overflow=hidden;fillColor=none;top=0;left=0;bottom=0;right=0;pointerEvents=1;fontStyle=1" vertex="1" parent="10ImH-gmjK7zjDxez7WS-22">
          <mxGeometry width="152" height="41" as="geometry">
            <mxRectangle width="152" height="41" as="alternateBounds" />
          </mxGeometry>
        </mxCell>
        <mxCell id="10ImH-gmjK7zjDxez7WS-24" value="Customer_ID" style="shape=partialRectangle;html=1;whiteSpace=wrap;connectable=0;strokeColor=inherit;overflow=hidden;fillColor=none;top=0;left=0;bottom=0;right=0;pointerEvents=1;fontStyle=4" vertex="1" parent="10ImH-gmjK7zjDxez7WS-22">
          <mxGeometry x="152" width="152" height="41" as="geometry">
            <mxRectangle width="152" height="41" as="alternateBounds" />
          </mxGeometry>
        </mxCell>
        <mxCell id="10ImH-gmjK7zjDxez7WS-25" value="Customer_name" style="shape=partialRectangle;html=1;whiteSpace=wrap;connectable=0;strokeColor=inherit;overflow=hidden;fillColor=none;top=0;left=0;bottom=0;right=0;pointerEvents=1;" vertex="1" parent="10ImH-gmjK7zjDxez7WS-22">
          <mxGeometry x="304" width="152" height="41" as="geometry">
            <mxRectangle width="152" height="41" as="alternateBounds" />
          </mxGeometry>
        </mxCell>
        <mxCell id="10ImH-gmjK7zjDxez7WS-50" value="Address" style="shape=partialRectangle;html=1;whiteSpace=wrap;connectable=0;strokeColor=inherit;overflow=hidden;fillColor=none;top=0;left=0;bottom=0;right=0;pointerEvents=1;" vertex="1" parent="10ImH-gmjK7zjDxez7WS-22">
          <mxGeometry x="456" width="141" height="41" as="geometry">
            <mxRectangle width="141" height="41" as="alternateBounds" />
          </mxGeometry>
        </mxCell>
        <mxCell id="10ImH-gmjK7zjDxez7WS-57" value="Date" style="shape=partialRectangle;html=1;whiteSpace=wrap;connectable=0;strokeColor=inherit;overflow=hidden;fillColor=none;top=0;left=0;bottom=0;right=0;pointerEvents=1;" vertex="1" parent="10ImH-gmjK7zjDxez7WS-22">
          <mxGeometry x="597" width="163" height="41" as="geometry">
            <mxRectangle width="163" height="41" as="alternateBounds" />
          </mxGeometry>
        </mxCell>
        <mxCell id="10ImH-gmjK7zjDxez7WS-26" value="" style="shape=tableRow;horizontal=0;startSize=0;swimlaneHead=0;swimlaneBody=0;strokeColor=inherit;top=0;left=0;bottom=0;right=0;collapsible=0;dropTarget=0;fillColor=none;points=[[0,0.5],[1,0.5]];portConstraint=eastwest;" vertex="1" parent="10ImH-gmjK7zjDxez7WS-21">
          <mxGeometry y="41" width="760" height="42" as="geometry" />
        </mxCell>
        <mxCell id="10ImH-gmjK7zjDxez7WS-27" value="Key Type" style="shape=partialRectangle;html=1;whiteSpace=wrap;connectable=0;strokeColor=inherit;overflow=hidden;fillColor=none;top=0;left=0;bottom=0;right=0;pointerEvents=1;fontStyle=1" vertex="1" parent="10ImH-gmjK7zjDxez7WS-26">
          <mxGeometry width="152" height="42" as="geometry">
            <mxRectangle width="152" height="42" as="alternateBounds" />
          </mxGeometry>
        </mxCell>
        <mxCell id="10ImH-gmjK7zjDxez7WS-28" value="PK" style="shape=partialRectangle;html=1;whiteSpace=wrap;connectable=0;strokeColor=inherit;overflow=hidden;fillColor=none;top=0;left=0;bottom=0;right=0;pointerEvents=1;" vertex="1" parent="10ImH-gmjK7zjDxez7WS-26">
          <mxGeometry x="152" width="152" height="42" as="geometry">
            <mxRectangle width="152" height="42" as="alternateBounds" />
          </mxGeometry>
        </mxCell>
        <mxCell id="10ImH-gmjK7zjDxez7WS-29" value="" style="shape=partialRectangle;html=1;whiteSpace=wrap;connectable=0;strokeColor=inherit;overflow=hidden;fillColor=none;top=0;left=0;bottom=0;right=0;pointerEvents=1;" vertex="1" parent="10ImH-gmjK7zjDxez7WS-26">
          <mxGeometry x="304" width="152" height="42" as="geometry">
            <mxRectangle width="152" height="42" as="alternateBounds" />
          </mxGeometry>
        </mxCell>
        <mxCell id="10ImH-gmjK7zjDxez7WS-51" style="shape=partialRectangle;html=1;whiteSpace=wrap;connectable=0;strokeColor=inherit;overflow=hidden;fillColor=none;top=0;left=0;bottom=0;right=0;pointerEvents=1;" vertex="1" parent="10ImH-gmjK7zjDxez7WS-26">
          <mxGeometry x="456" width="141" height="42" as="geometry">
            <mxRectangle width="141" height="42" as="alternateBounds" />
          </mxGeometry>
        </mxCell>
        <mxCell id="10ImH-gmjK7zjDxez7WS-58" style="shape=partialRectangle;html=1;whiteSpace=wrap;connectable=0;strokeColor=inherit;overflow=hidden;fillColor=none;top=0;left=0;bottom=0;right=0;pointerEvents=1;" vertex="1" parent="10ImH-gmjK7zjDxez7WS-26">
          <mxGeometry x="597" width="163" height="42" as="geometry">
            <mxRectangle width="163" height="42" as="alternateBounds" />
          </mxGeometry>
        </mxCell>
        <mxCell id="10ImH-gmjK7zjDxez7WS-30" value="" style="shape=tableRow;horizontal=0;startSize=0;swimlaneHead=0;swimlaneBody=0;strokeColor=inherit;top=0;left=0;bottom=0;right=0;collapsible=0;dropTarget=0;fillColor=none;points=[[0,0.5],[1,0.5]];portConstraint=eastwest;" vertex="1" parent="10ImH-gmjK7zjDxez7WS-21">
          <mxGeometry y="83" width="760" height="41" as="geometry" />
        </mxCell>
        <mxCell id="10ImH-gmjK7zjDxez7WS-31" value="Null/Unique" style="shape=partialRectangle;html=1;whiteSpace=wrap;connectable=0;strokeColor=inherit;overflow=hidden;fillColor=none;top=0;left=0;bottom=0;right=0;pointerEvents=1;fontStyle=1" vertex="1" parent="10ImH-gmjK7zjDxez7WS-30">
          <mxGeometry width="152" height="41" as="geometry">
            <mxRectangle width="152" height="41" as="alternateBounds" />
          </mxGeometry>
        </mxCell>
        <mxCell id="10ImH-gmjK7zjDxez7WS-32" value="NN, U" style="shape=partialRectangle;html=1;whiteSpace=wrap;connectable=0;strokeColor=inherit;overflow=hidden;fillColor=none;top=0;left=0;bottom=0;right=0;pointerEvents=1;" vertex="1" parent="10ImH-gmjK7zjDxez7WS-30">
          <mxGeometry x="152" width="152" height="41" as="geometry">
            <mxRectangle width="152" height="41" as="alternateBounds" />
          </mxGeometry>
        </mxCell>
        <mxCell id="10ImH-gmjK7zjDxez7WS-33" value="NN" style="shape=partialRectangle;html=1;whiteSpace=wrap;connectable=0;strokeColor=inherit;overflow=hidden;fillColor=none;top=0;left=0;bottom=0;right=0;pointerEvents=1;" vertex="1" parent="10ImH-gmjK7zjDxez7WS-30">
          <mxGeometry x="304" width="152" height="41" as="geometry">
            <mxRectangle width="152" height="41" as="alternateBounds" />
          </mxGeometry>
        </mxCell>
        <mxCell id="10ImH-gmjK7zjDxez7WS-52" value="NN" style="shape=partialRectangle;html=1;whiteSpace=wrap;connectable=0;strokeColor=inherit;overflow=hidden;fillColor=none;top=0;left=0;bottom=0;right=0;pointerEvents=1;" vertex="1" parent="10ImH-gmjK7zjDxez7WS-30">
          <mxGeometry x="456" width="141" height="41" as="geometry">
            <mxRectangle width="141" height="41" as="alternateBounds" />
          </mxGeometry>
        </mxCell>
        <mxCell id="10ImH-gmjK7zjDxez7WS-59" value="NN" style="shape=partialRectangle;html=1;whiteSpace=wrap;connectable=0;strokeColor=inherit;overflow=hidden;fillColor=none;top=0;left=0;bottom=0;right=0;pointerEvents=1;" vertex="1" parent="10ImH-gmjK7zjDxez7WS-30">
          <mxGeometry x="597" width="163" height="41" as="geometry">
            <mxRectangle width="163" height="41" as="alternateBounds" />
          </mxGeometry>
        </mxCell>
        <mxCell id="10ImH-gmjK7zjDxez7WS-34" value="" style="shape=tableRow;horizontal=0;startSize=0;swimlaneHead=0;swimlaneBody=0;strokeColor=inherit;top=0;left=0;bottom=0;right=0;collapsible=0;dropTarget=0;fillColor=none;points=[[0,0.5],[1,0.5]];portConstraint=eastwest;" vertex="1" parent="10ImH-gmjK7zjDxez7WS-21">
          <mxGeometry y="124" width="760" height="42" as="geometry" />
        </mxCell>
        <mxCell id="10ImH-gmjK7zjDxez7WS-35" value="FK Table" style="shape=partialRectangle;html=1;whiteSpace=wrap;connectable=0;strokeColor=inherit;overflow=hidden;fillColor=none;top=0;left=0;bottom=0;right=0;pointerEvents=1;fontStyle=1" vertex="1" parent="10ImH-gmjK7zjDxez7WS-34">
          <mxGeometry width="152" height="42" as="geometry">
            <mxRectangle width="152" height="42" as="alternateBounds" />
          </mxGeometry>
        </mxCell>
        <mxCell id="10ImH-gmjK7zjDxez7WS-36" value="" style="shape=partialRectangle;html=1;whiteSpace=wrap;connectable=0;strokeColor=inherit;overflow=hidden;fillColor=none;top=0;left=0;bottom=0;right=0;pointerEvents=1;" vertex="1" parent="10ImH-gmjK7zjDxez7WS-34">
          <mxGeometry x="152" width="152" height="42" as="geometry">
            <mxRectangle width="152" height="42" as="alternateBounds" />
          </mxGeometry>
        </mxCell>
        <mxCell id="10ImH-gmjK7zjDxez7WS-37" value="" style="shape=partialRectangle;html=1;whiteSpace=wrap;connectable=0;strokeColor=inherit;overflow=hidden;fillColor=none;top=0;left=0;bottom=0;right=0;pointerEvents=1;" vertex="1" parent="10ImH-gmjK7zjDxez7WS-34">
          <mxGeometry x="304" width="152" height="42" as="geometry">
            <mxRectangle width="152" height="42" as="alternateBounds" />
          </mxGeometry>
        </mxCell>
        <mxCell id="10ImH-gmjK7zjDxez7WS-53" style="shape=partialRectangle;html=1;whiteSpace=wrap;connectable=0;strokeColor=inherit;overflow=hidden;fillColor=none;top=0;left=0;bottom=0;right=0;pointerEvents=1;" vertex="1" parent="10ImH-gmjK7zjDxez7WS-34">
          <mxGeometry x="456" width="141" height="42" as="geometry">
            <mxRectangle width="141" height="42" as="alternateBounds" />
          </mxGeometry>
        </mxCell>
        <mxCell id="10ImH-gmjK7zjDxez7WS-60" style="shape=partialRectangle;html=1;whiteSpace=wrap;connectable=0;strokeColor=inherit;overflow=hidden;fillColor=none;top=0;left=0;bottom=0;right=0;pointerEvents=1;" vertex="1" parent="10ImH-gmjK7zjDxez7WS-34">
          <mxGeometry x="597" width="163" height="42" as="geometry">
            <mxRectangle width="163" height="42" as="alternateBounds" />
          </mxGeometry>
        </mxCell>
        <mxCell id="10ImH-gmjK7zjDxez7WS-38" value="" style="shape=tableRow;horizontal=0;startSize=0;swimlaneHead=0;swimlaneBody=0;strokeColor=inherit;top=0;left=0;bottom=0;right=0;collapsible=0;dropTarget=0;fillColor=none;points=[[0,0.5],[1,0.5]];portConstraint=eastwest;" vertex="1" parent="10ImH-gmjK7zjDxez7WS-21">
          <mxGeometry y="166" width="760" height="41" as="geometry" />
        </mxCell>
        <mxCell id="10ImH-gmjK7zjDxez7WS-39" value="FK Column" style="shape=partialRectangle;html=1;whiteSpace=wrap;connectable=0;strokeColor=inherit;overflow=hidden;fillColor=none;top=0;left=0;bottom=0;right=0;pointerEvents=1;fontStyle=1" vertex="1" parent="10ImH-gmjK7zjDxez7WS-38">
          <mxGeometry width="152" height="41" as="geometry">
            <mxRectangle width="152" height="41" as="alternateBounds" />
          </mxGeometry>
        </mxCell>
        <mxCell id="10ImH-gmjK7zjDxez7WS-40" value="" style="shape=partialRectangle;html=1;whiteSpace=wrap;connectable=0;strokeColor=inherit;overflow=hidden;fillColor=none;top=0;left=0;bottom=0;right=0;pointerEvents=1;" vertex="1" parent="10ImH-gmjK7zjDxez7WS-38">
          <mxGeometry x="152" width="152" height="41" as="geometry">
            <mxRectangle width="152" height="41" as="alternateBounds" />
          </mxGeometry>
        </mxCell>
        <mxCell id="10ImH-gmjK7zjDxez7WS-41" value="" style="shape=partialRectangle;html=1;whiteSpace=wrap;connectable=0;strokeColor=inherit;overflow=hidden;fillColor=none;top=0;left=0;bottom=0;right=0;pointerEvents=1;" vertex="1" parent="10ImH-gmjK7zjDxez7WS-38">
          <mxGeometry x="304" width="152" height="41" as="geometry">
            <mxRectangle width="152" height="41" as="alternateBounds" />
          </mxGeometry>
        </mxCell>
        <mxCell id="10ImH-gmjK7zjDxez7WS-54" style="shape=partialRectangle;html=1;whiteSpace=wrap;connectable=0;strokeColor=inherit;overflow=hidden;fillColor=none;top=0;left=0;bottom=0;right=0;pointerEvents=1;" vertex="1" parent="10ImH-gmjK7zjDxez7WS-38">
          <mxGeometry x="456" width="141" height="41" as="geometry">
            <mxRectangle width="141" height="41" as="alternateBounds" />
          </mxGeometry>
        </mxCell>
        <mxCell id="10ImH-gmjK7zjDxez7WS-61" style="shape=partialRectangle;html=1;whiteSpace=wrap;connectable=0;strokeColor=inherit;overflow=hidden;fillColor=none;top=0;left=0;bottom=0;right=0;pointerEvents=1;" vertex="1" parent="10ImH-gmjK7zjDxez7WS-38">
          <mxGeometry x="597" width="163" height="41" as="geometry">
            <mxRectangle width="163" height="41" as="alternateBounds" />
          </mxGeometry>
        </mxCell>
        <mxCell id="10ImH-gmjK7zjDxez7WS-42" value="" style="shape=tableRow;horizontal=0;startSize=0;swimlaneHead=0;swimlaneBody=0;strokeColor=inherit;top=0;left=0;bottom=0;right=0;collapsible=0;dropTarget=0;fillColor=none;points=[[0,0.5],[1,0.5]];portConstraint=eastwest;" vertex="1" parent="10ImH-gmjK7zjDxez7WS-21">
          <mxGeometry y="207" width="760" height="42" as="geometry" />
        </mxCell>
        <mxCell id="10ImH-gmjK7zjDxez7WS-43" value="Datatype" style="shape=partialRectangle;html=1;whiteSpace=wrap;connectable=0;strokeColor=inherit;overflow=hidden;fillColor=none;top=0;left=0;bottom=0;right=0;pointerEvents=1;fontStyle=1" vertex="1" parent="10ImH-gmjK7zjDxez7WS-42">
          <mxGeometry width="152" height="42" as="geometry">
            <mxRectangle width="152" height="42" as="alternateBounds" />
          </mxGeometry>
        </mxCell>
        <mxCell id="10ImH-gmjK7zjDxez7WS-44" value="INT" style="shape=partialRectangle;html=1;whiteSpace=wrap;connectable=0;strokeColor=inherit;overflow=hidden;fillColor=none;top=0;left=0;bottom=0;right=0;pointerEvents=1;" vertex="1" parent="10ImH-gmjK7zjDxez7WS-42">
          <mxGeometry x="152" width="152" height="42" as="geometry">
            <mxRectangle width="152" height="42" as="alternateBounds" />
          </mxGeometry>
        </mxCell>
        <mxCell id="10ImH-gmjK7zjDxez7WS-45" value="NVARCHAR" style="shape=partialRectangle;html=1;whiteSpace=wrap;connectable=0;strokeColor=inherit;overflow=hidden;fillColor=none;top=0;left=0;bottom=0;right=0;pointerEvents=1;" vertex="1" parent="10ImH-gmjK7zjDxez7WS-42">
          <mxGeometry x="304" width="152" height="42" as="geometry">
            <mxRectangle width="152" height="42" as="alternateBounds" />
          </mxGeometry>
        </mxCell>
        <mxCell id="10ImH-gmjK7zjDxez7WS-55" value="NVARCHAR" style="shape=partialRectangle;html=1;whiteSpace=wrap;connectable=0;strokeColor=inherit;overflow=hidden;fillColor=none;top=0;left=0;bottom=0;right=0;pointerEvents=1;" vertex="1" parent="10ImH-gmjK7zjDxez7WS-42">
          <mxGeometry x="456" width="141" height="42" as="geometry">
            <mxRectangle width="141" height="42" as="alternateBounds" />
          </mxGeometry>
        </mxCell>
        <mxCell id="10ImH-gmjK7zjDxez7WS-62" value="DATE" style="shape=partialRectangle;html=1;whiteSpace=wrap;connectable=0;strokeColor=inherit;overflow=hidden;fillColor=none;top=0;left=0;bottom=0;right=0;pointerEvents=1;" vertex="1" parent="10ImH-gmjK7zjDxez7WS-42">
          <mxGeometry x="597" width="163" height="42" as="geometry">
            <mxRectangle width="163" height="42" as="alternateBounds" />
          </mxGeometry>
        </mxCell>
        <mxCell id="10ImH-gmjK7zjDxez7WS-46" value="" style="shape=tableRow;horizontal=0;startSize=0;swimlaneHead=0;swimlaneBody=0;strokeColor=inherit;top=0;left=0;bottom=0;right=0;collapsible=0;dropTarget=0;fillColor=none;points=[[0,0.5],[1,0.5]];portConstraint=eastwest;" vertex="1" parent="10ImH-gmjK7zjDxez7WS-21">
          <mxGeometry y="249" width="760" height="41" as="geometry" />
        </mxCell>
        <mxCell id="10ImH-gmjK7zjDxez7WS-47" value="Max Length" style="shape=partialRectangle;html=1;whiteSpace=wrap;connectable=0;strokeColor=inherit;overflow=hidden;fillColor=none;top=0;left=0;bottom=0;right=0;pointerEvents=1;fontStyle=1" vertex="1" parent="10ImH-gmjK7zjDxez7WS-46">
          <mxGeometry width="152" height="41" as="geometry">
            <mxRectangle width="152" height="41" as="alternateBounds" />
          </mxGeometry>
        </mxCell>
        <mxCell id="10ImH-gmjK7zjDxez7WS-48" value="" style="shape=partialRectangle;html=1;whiteSpace=wrap;connectable=0;strokeColor=inherit;overflow=hidden;fillColor=none;top=0;left=0;bottom=0;right=0;pointerEvents=1;" vertex="1" parent="10ImH-gmjK7zjDxez7WS-46">
          <mxGeometry x="152" width="152" height="41" as="geometry">
            <mxRectangle width="152" height="41" as="alternateBounds" />
          </mxGeometry>
        </mxCell>
        <mxCell id="10ImH-gmjK7zjDxez7WS-49" value="50" style="shape=partialRectangle;html=1;whiteSpace=wrap;connectable=0;strokeColor=inherit;overflow=hidden;fillColor=none;top=0;left=0;bottom=0;right=0;pointerEvents=1;" vertex="1" parent="10ImH-gmjK7zjDxez7WS-46">
          <mxGeometry x="304" width="152" height="41" as="geometry">
            <mxRectangle width="152" height="41" as="alternateBounds" />
          </mxGeometry>
        </mxCell>
        <mxCell id="10ImH-gmjK7zjDxez7WS-56" value="255" style="shape=partialRectangle;html=1;whiteSpace=wrap;connectable=0;strokeColor=inherit;overflow=hidden;fillColor=none;top=0;left=0;bottom=0;right=0;pointerEvents=1;" vertex="1" parent="10ImH-gmjK7zjDxez7WS-46">
          <mxGeometry x="456" width="141" height="41" as="geometry">
            <mxRectangle width="141" height="41" as="alternateBounds" />
          </mxGeometry>
        </mxCell>
        <mxCell id="10ImH-gmjK7zjDxez7WS-63" style="shape=partialRectangle;html=1;whiteSpace=wrap;connectable=0;strokeColor=inherit;overflow=hidden;fillColor=none;top=0;left=0;bottom=0;right=0;pointerEvents=1;" vertex="1" parent="10ImH-gmjK7zjDxez7WS-46">
          <mxGeometry x="597" width="163" height="41" as="geometry">
            <mxRectangle width="163" height="41" as="alternateBounds" />
          </mxGeometry>
        </mxCell>
        <mxCell id="10ImH-gmjK7zjDxez7WS-64" value="" style="shape=table;startSize=0;container=1;collapsible=0;childLayout=tableLayout;" vertex="1" parent="1">
          <mxGeometry x="40" y="800" width="760" height="290" as="geometry" />
        </mxCell>
        <mxCell id="10ImH-gmjK7zjDxez7WS-65" value="" style="shape=tableRow;horizontal=0;startSize=0;swimlaneHead=0;swimlaneBody=0;strokeColor=inherit;top=0;left=0;bottom=0;right=0;collapsible=0;dropTarget=0;fillColor=none;points=[[0,0.5],[1,0.5]];portConstraint=eastwest;" vertex="1" parent="10ImH-gmjK7zjDxez7WS-64">
          <mxGeometry width="760" height="41" as="geometry" />
        </mxCell>
        <mxCell id="10ImH-gmjK7zjDxez7WS-66" value="Column Name" style="shape=partialRectangle;html=1;whiteSpace=wrap;connectable=0;strokeColor=inherit;overflow=hidden;fillColor=none;top=0;left=0;bottom=0;right=0;pointerEvents=1;fontStyle=1" vertex="1" parent="10ImH-gmjK7zjDxez7WS-65">
          <mxGeometry width="190" height="41" as="geometry">
            <mxRectangle width="190" height="41" as="alternateBounds" />
          </mxGeometry>
        </mxCell>
        <mxCell id="10ImH-gmjK7zjDxez7WS-67" value="Phone_ID" style="shape=partialRectangle;html=1;whiteSpace=wrap;connectable=0;strokeColor=inherit;overflow=hidden;fillColor=none;top=0;left=0;bottom=0;right=0;pointerEvents=1;fontStyle=4" vertex="1" parent="10ImH-gmjK7zjDxez7WS-65">
          <mxGeometry x="190" width="190" height="41" as="geometry">
            <mxRectangle width="190" height="41" as="alternateBounds" />
          </mxGeometry>
        </mxCell>
        <mxCell id="10ImH-gmjK7zjDxez7WS-68" value="Customer_ID*" style="shape=partialRectangle;html=1;whiteSpace=wrap;connectable=0;strokeColor=inherit;overflow=hidden;fillColor=none;top=0;left=0;bottom=0;right=0;pointerEvents=1;" vertex="1" parent="10ImH-gmjK7zjDxez7WS-65">
          <mxGeometry x="380" width="190" height="41" as="geometry">
            <mxRectangle width="190" height="41" as="alternateBounds" />
          </mxGeometry>
        </mxCell>
        <mxCell id="10ImH-gmjK7zjDxez7WS-69" value="Numbers" style="shape=partialRectangle;html=1;whiteSpace=wrap;connectable=0;strokeColor=inherit;overflow=hidden;fillColor=none;top=0;left=0;bottom=0;right=0;pointerEvents=1;" vertex="1" parent="10ImH-gmjK7zjDxez7WS-65">
          <mxGeometry x="570" width="190" height="41" as="geometry">
            <mxRectangle width="190" height="41" as="alternateBounds" />
          </mxGeometry>
        </mxCell>
        <mxCell id="10ImH-gmjK7zjDxez7WS-71" value="" style="shape=tableRow;horizontal=0;startSize=0;swimlaneHead=0;swimlaneBody=0;strokeColor=inherit;top=0;left=0;bottom=0;right=0;collapsible=0;dropTarget=0;fillColor=none;points=[[0,0.5],[1,0.5]];portConstraint=eastwest;" vertex="1" parent="10ImH-gmjK7zjDxez7WS-64">
          <mxGeometry y="41" width="760" height="42" as="geometry" />
        </mxCell>
        <mxCell id="10ImH-gmjK7zjDxez7WS-72" value="Key Type" style="shape=partialRectangle;html=1;whiteSpace=wrap;connectable=0;strokeColor=inherit;overflow=hidden;fillColor=none;top=0;left=0;bottom=0;right=0;pointerEvents=1;fontStyle=1" vertex="1" parent="10ImH-gmjK7zjDxez7WS-71">
          <mxGeometry width="190" height="42" as="geometry">
            <mxRectangle width="190" height="42" as="alternateBounds" />
          </mxGeometry>
        </mxCell>
        <mxCell id="10ImH-gmjK7zjDxez7WS-73" value="PK" style="shape=partialRectangle;html=1;whiteSpace=wrap;connectable=0;strokeColor=inherit;overflow=hidden;fillColor=none;top=0;left=0;bottom=0;right=0;pointerEvents=1;" vertex="1" parent="10ImH-gmjK7zjDxez7WS-71">
          <mxGeometry x="190" width="190" height="42" as="geometry">
            <mxRectangle width="190" height="42" as="alternateBounds" />
          </mxGeometry>
        </mxCell>
        <mxCell id="10ImH-gmjK7zjDxez7WS-74" value="" style="shape=partialRectangle;html=1;whiteSpace=wrap;connectable=0;strokeColor=inherit;overflow=hidden;fillColor=none;top=0;left=0;bottom=0;right=0;pointerEvents=1;" vertex="1" parent="10ImH-gmjK7zjDxez7WS-71">
          <mxGeometry x="380" width="190" height="42" as="geometry">
            <mxRectangle width="190" height="42" as="alternateBounds" />
          </mxGeometry>
        </mxCell>
        <mxCell id="10ImH-gmjK7zjDxez7WS-75" style="shape=partialRectangle;html=1;whiteSpace=wrap;connectable=0;strokeColor=inherit;overflow=hidden;fillColor=none;top=0;left=0;bottom=0;right=0;pointerEvents=1;" vertex="1" parent="10ImH-gmjK7zjDxez7WS-71">
          <mxGeometry x="570" width="190" height="42" as="geometry">
            <mxRectangle width="190" height="42" as="alternateBounds" />
          </mxGeometry>
        </mxCell>
        <mxCell id="10ImH-gmjK7zjDxez7WS-77" value="" style="shape=tableRow;horizontal=0;startSize=0;swimlaneHead=0;swimlaneBody=0;strokeColor=inherit;top=0;left=0;bottom=0;right=0;collapsible=0;dropTarget=0;fillColor=none;points=[[0,0.5],[1,0.5]];portConstraint=eastwest;" vertex="1" parent="10ImH-gmjK7zjDxez7WS-64">
          <mxGeometry y="83" width="760" height="41" as="geometry" />
        </mxCell>
        <mxCell id="10ImH-gmjK7zjDxez7WS-78" value="Null/Unique" style="shape=partialRectangle;html=1;whiteSpace=wrap;connectable=0;strokeColor=inherit;overflow=hidden;fillColor=none;top=0;left=0;bottom=0;right=0;pointerEvents=1;fontStyle=1" vertex="1" parent="10ImH-gmjK7zjDxez7WS-77">
          <mxGeometry width="190" height="41" as="geometry">
            <mxRectangle width="190" height="41" as="alternateBounds" />
          </mxGeometry>
        </mxCell>
        <mxCell id="10ImH-gmjK7zjDxez7WS-79" value="NN, U" style="shape=partialRectangle;html=1;whiteSpace=wrap;connectable=0;strokeColor=inherit;overflow=hidden;fillColor=none;top=0;left=0;bottom=0;right=0;pointerEvents=1;" vertex="1" parent="10ImH-gmjK7zjDxez7WS-77">
          <mxGeometry x="190" width="190" height="41" as="geometry">
            <mxRectangle width="190" height="41" as="alternateBounds" />
          </mxGeometry>
        </mxCell>
        <mxCell id="10ImH-gmjK7zjDxez7WS-80" value="NN" style="shape=partialRectangle;html=1;whiteSpace=wrap;connectable=0;strokeColor=inherit;overflow=hidden;fillColor=none;top=0;left=0;bottom=0;right=0;pointerEvents=1;" vertex="1" parent="10ImH-gmjK7zjDxez7WS-77">
          <mxGeometry x="380" width="190" height="41" as="geometry">
            <mxRectangle width="190" height="41" as="alternateBounds" />
          </mxGeometry>
        </mxCell>
        <mxCell id="10ImH-gmjK7zjDxez7WS-81" value="NN" style="shape=partialRectangle;html=1;whiteSpace=wrap;connectable=0;strokeColor=inherit;overflow=hidden;fillColor=none;top=0;left=0;bottom=0;right=0;pointerEvents=1;" vertex="1" parent="10ImH-gmjK7zjDxez7WS-77">
          <mxGeometry x="570" width="190" height="41" as="geometry">
            <mxRectangle width="190" height="41" as="alternateBounds" />
          </mxGeometry>
        </mxCell>
        <mxCell id="10ImH-gmjK7zjDxez7WS-83" value="" style="shape=tableRow;horizontal=0;startSize=0;swimlaneHead=0;swimlaneBody=0;strokeColor=inherit;top=0;left=0;bottom=0;right=0;collapsible=0;dropTarget=0;fillColor=none;points=[[0,0.5],[1,0.5]];portConstraint=eastwest;" vertex="1" parent="10ImH-gmjK7zjDxez7WS-64">
          <mxGeometry y="124" width="760" height="42" as="geometry" />
        </mxCell>
        <mxCell id="10ImH-gmjK7zjDxez7WS-84" value="FK Table" style="shape=partialRectangle;html=1;whiteSpace=wrap;connectable=0;strokeColor=inherit;overflow=hidden;fillColor=none;top=0;left=0;bottom=0;right=0;pointerEvents=1;fontStyle=1" vertex="1" parent="10ImH-gmjK7zjDxez7WS-83">
          <mxGeometry width="190" height="42" as="geometry">
            <mxRectangle width="190" height="42" as="alternateBounds" />
          </mxGeometry>
        </mxCell>
        <mxCell id="10ImH-gmjK7zjDxez7WS-85" value="" style="shape=partialRectangle;html=1;whiteSpace=wrap;connectable=0;strokeColor=inherit;overflow=hidden;fillColor=none;top=0;left=0;bottom=0;right=0;pointerEvents=1;" vertex="1" parent="10ImH-gmjK7zjDxez7WS-83">
          <mxGeometry x="190" width="190" height="42" as="geometry">
            <mxRectangle width="190" height="42" as="alternateBounds" />
          </mxGeometry>
        </mxCell>
        <mxCell id="10ImH-gmjK7zjDxez7WS-86" value="" style="shape=partialRectangle;html=1;whiteSpace=wrap;connectable=0;strokeColor=inherit;overflow=hidden;fillColor=none;top=0;left=0;bottom=0;right=0;pointerEvents=1;" vertex="1" parent="10ImH-gmjK7zjDxez7WS-83">
          <mxGeometry x="380" width="190" height="42" as="geometry">
            <mxRectangle width="190" height="42" as="alternateBounds" />
          </mxGeometry>
        </mxCell>
        <mxCell id="10ImH-gmjK7zjDxez7WS-87" style="shape=partialRectangle;html=1;whiteSpace=wrap;connectable=0;strokeColor=inherit;overflow=hidden;fillColor=none;top=0;left=0;bottom=0;right=0;pointerEvents=1;" vertex="1" parent="10ImH-gmjK7zjDxez7WS-83">
          <mxGeometry x="570" width="190" height="42" as="geometry">
            <mxRectangle width="190" height="42" as="alternateBounds" />
          </mxGeometry>
        </mxCell>
        <mxCell id="10ImH-gmjK7zjDxez7WS-89" value="" style="shape=tableRow;horizontal=0;startSize=0;swimlaneHead=0;swimlaneBody=0;strokeColor=inherit;top=0;left=0;bottom=0;right=0;collapsible=0;dropTarget=0;fillColor=none;points=[[0,0.5],[1,0.5]];portConstraint=eastwest;" vertex="1" parent="10ImH-gmjK7zjDxez7WS-64">
          <mxGeometry y="166" width="760" height="41" as="geometry" />
        </mxCell>
        <mxCell id="10ImH-gmjK7zjDxez7WS-90" value="FK Column" style="shape=partialRectangle;html=1;whiteSpace=wrap;connectable=0;strokeColor=inherit;overflow=hidden;fillColor=none;top=0;left=0;bottom=0;right=0;pointerEvents=1;fontStyle=1" vertex="1" parent="10ImH-gmjK7zjDxez7WS-89">
          <mxGeometry width="190" height="41" as="geometry">
            <mxRectangle width="190" height="41" as="alternateBounds" />
          </mxGeometry>
        </mxCell>
        <mxCell id="10ImH-gmjK7zjDxez7WS-91" value="" style="shape=partialRectangle;html=1;whiteSpace=wrap;connectable=0;strokeColor=inherit;overflow=hidden;fillColor=none;top=0;left=0;bottom=0;right=0;pointerEvents=1;" vertex="1" parent="10ImH-gmjK7zjDxez7WS-89">
          <mxGeometry x="190" width="190" height="41" as="geometry">
            <mxRectangle width="190" height="41" as="alternateBounds" />
          </mxGeometry>
        </mxCell>
        <mxCell id="10ImH-gmjK7zjDxez7WS-92" value="" style="shape=partialRectangle;html=1;whiteSpace=wrap;connectable=0;strokeColor=inherit;overflow=hidden;fillColor=none;top=0;left=0;bottom=0;right=0;pointerEvents=1;" vertex="1" parent="10ImH-gmjK7zjDxez7WS-89">
          <mxGeometry x="380" width="190" height="41" as="geometry">
            <mxRectangle width="190" height="41" as="alternateBounds" />
          </mxGeometry>
        </mxCell>
        <mxCell id="10ImH-gmjK7zjDxez7WS-93" style="shape=partialRectangle;html=1;whiteSpace=wrap;connectable=0;strokeColor=inherit;overflow=hidden;fillColor=none;top=0;left=0;bottom=0;right=0;pointerEvents=1;" vertex="1" parent="10ImH-gmjK7zjDxez7WS-89">
          <mxGeometry x="570" width="190" height="41" as="geometry">
            <mxRectangle width="190" height="41" as="alternateBounds" />
          </mxGeometry>
        </mxCell>
        <mxCell id="10ImH-gmjK7zjDxez7WS-95" value="" style="shape=tableRow;horizontal=0;startSize=0;swimlaneHead=0;swimlaneBody=0;strokeColor=inherit;top=0;left=0;bottom=0;right=0;collapsible=0;dropTarget=0;fillColor=none;points=[[0,0.5],[1,0.5]];portConstraint=eastwest;" vertex="1" parent="10ImH-gmjK7zjDxez7WS-64">
          <mxGeometry y="207" width="760" height="42" as="geometry" />
        </mxCell>
        <mxCell id="10ImH-gmjK7zjDxez7WS-96" value="Datatype" style="shape=partialRectangle;html=1;whiteSpace=wrap;connectable=0;strokeColor=inherit;overflow=hidden;fillColor=none;top=0;left=0;bottom=0;right=0;pointerEvents=1;fontStyle=1" vertex="1" parent="10ImH-gmjK7zjDxez7WS-95">
          <mxGeometry width="190" height="42" as="geometry">
            <mxRectangle width="190" height="42" as="alternateBounds" />
          </mxGeometry>
        </mxCell>
        <mxCell id="10ImH-gmjK7zjDxez7WS-97" value="INT" style="shape=partialRectangle;html=1;whiteSpace=wrap;connectable=0;strokeColor=inherit;overflow=hidden;fillColor=none;top=0;left=0;bottom=0;right=0;pointerEvents=1;" vertex="1" parent="10ImH-gmjK7zjDxez7WS-95">
          <mxGeometry x="190" width="190" height="42" as="geometry">
            <mxRectangle width="190" height="42" as="alternateBounds" />
          </mxGeometry>
        </mxCell>
        <mxCell id="10ImH-gmjK7zjDxez7WS-98" value="INT" style="shape=partialRectangle;html=1;whiteSpace=wrap;connectable=0;strokeColor=inherit;overflow=hidden;fillColor=none;top=0;left=0;bottom=0;right=0;pointerEvents=1;" vertex="1" parent="10ImH-gmjK7zjDxez7WS-95">
          <mxGeometry x="380" width="190" height="42" as="geometry">
            <mxRectangle width="190" height="42" as="alternateBounds" />
          </mxGeometry>
        </mxCell>
        <mxCell id="10ImH-gmjK7zjDxez7WS-99" value="INT" style="shape=partialRectangle;html=1;whiteSpace=wrap;connectable=0;strokeColor=inherit;overflow=hidden;fillColor=none;top=0;left=0;bottom=0;right=0;pointerEvents=1;" vertex="1" parent="10ImH-gmjK7zjDxez7WS-95">
          <mxGeometry x="570" width="190" height="42" as="geometry">
            <mxRectangle width="190" height="42" as="alternateBounds" />
          </mxGeometry>
        </mxCell>
        <mxCell id="10ImH-gmjK7zjDxez7WS-101" value="" style="shape=tableRow;horizontal=0;startSize=0;swimlaneHead=0;swimlaneBody=0;strokeColor=inherit;top=0;left=0;bottom=0;right=0;collapsible=0;dropTarget=0;fillColor=none;points=[[0,0.5],[1,0.5]];portConstraint=eastwest;" vertex="1" parent="10ImH-gmjK7zjDxez7WS-64">
          <mxGeometry y="249" width="760" height="41" as="geometry" />
        </mxCell>
        <mxCell id="10ImH-gmjK7zjDxez7WS-102" value="Max Length" style="shape=partialRectangle;html=1;whiteSpace=wrap;connectable=0;strokeColor=inherit;overflow=hidden;fillColor=none;top=0;left=0;bottom=0;right=0;pointerEvents=1;fontStyle=1" vertex="1" parent="10ImH-gmjK7zjDxez7WS-101">
          <mxGeometry width="190" height="41" as="geometry">
            <mxRectangle width="190" height="41" as="alternateBounds" />
          </mxGeometry>
        </mxCell>
        <mxCell id="10ImH-gmjK7zjDxez7WS-103" value="" style="shape=partialRectangle;html=1;whiteSpace=wrap;connectable=0;strokeColor=inherit;overflow=hidden;fillColor=none;top=0;left=0;bottom=0;right=0;pointerEvents=1;" vertex="1" parent="10ImH-gmjK7zjDxez7WS-101">
          <mxGeometry x="190" width="190" height="41" as="geometry">
            <mxRectangle width="190" height="41" as="alternateBounds" />
          </mxGeometry>
        </mxCell>
        <mxCell id="10ImH-gmjK7zjDxez7WS-104" value="" style="shape=partialRectangle;html=1;whiteSpace=wrap;connectable=0;strokeColor=inherit;overflow=hidden;fillColor=none;top=0;left=0;bottom=0;right=0;pointerEvents=1;" vertex="1" parent="10ImH-gmjK7zjDxez7WS-101">
          <mxGeometry x="380" width="190" height="41" as="geometry">
            <mxRectangle width="190" height="41" as="alternateBounds" />
          </mxGeometry>
        </mxCell>
        <mxCell id="10ImH-gmjK7zjDxez7WS-105" style="shape=partialRectangle;html=1;whiteSpace=wrap;connectable=0;strokeColor=inherit;overflow=hidden;fillColor=none;top=0;left=0;bottom=0;right=0;pointerEvents=1;" vertex="1" parent="10ImH-gmjK7zjDxez7WS-101">
          <mxGeometry x="570" width="190" height="41" as="geometry">
            <mxRectangle width="190" height="41" as="alternateBounds" />
          </mxGeometry>
        </mxCell>
        <mxCell id="10ImH-gmjK7zjDxez7WS-107" value="&lt;b&gt;&lt;font style=&quot;font-size: 14px;&quot;&gt;PhoneNumbers&lt;/font&gt;&lt;/b&gt;" style="text;html=1;align=center;verticalAlign=middle;resizable=0;points=[];autosize=1;strokeColor=none;fillColor=none;" vertex="1" parent="1">
          <mxGeometry x="30" y="770" width="130" height="30" as="geometry" />
        </mxCell>
      </root>
    </mxGraphModel>
  </diagram>
</mxfile>
